# xmcd
#
# Track frame offsets:
# 150
# 12550
# 25985
# 41602
# 56220
# 67950
# 82890
# 93175
# 107697
# 119832
# 134202
# 148387
# 161860
# 173360
# 185865
# 200292
# 213755
# 221055
# 232072
# 248557
# 260512
#
# Disc length: 3646 seconds
#
#
# Revision: 0
# Processed by: cddbd v1.5.2PL0 Copyright (c) Steve Scherf et al.
# Submitted via: FreeRIP 2.942 
#
DISCID=400e3c15
DTITLE=John Lee Hooker - Detroit Stuff
DYEAR=1991
DGENRE=Blues
TTITLE0=House Rent Boogie
TTITLE1=Wandering Blues
TTITLE2=Questionnaire Blues
TTITLE3=Real Gone Gal
TTITLE4=Little Boy Blue
TTITLE5=My Daddy Was A jockey
TTITLE6=Feed Her All Night
TTITLE7=How Long Must I Be Your Slave
TTITLE8=Ground Hog
TTITLE9=Mean Old Train
TTITLE10=Catfish
TTITLE11=Making A Fool Out Of Me
TTITLE12=Gangster Blues
TTITLE13=Grieving Blues
TTITLE14=Where Did You Stay Last Night
TTITLE15=Squeeze Me Baby
TTITLE16=Decoration Day Blues
TTITLE17=Angel Of Mercy
TTITLE18=Low Down Dirty Shame
TTITLE19=My Special Friend Blues
TTITLE20=Nervy Woman Blues
EXTD=John Lee Hooker 1-11, Eddie Burns 12-17, W. Harris 18-19, Baby Boy Warren 20-21
EXTT0=
EXTT1=
EXTT2=
EXTT3=
EXTT4=
EXTT5=
EXTT6=
EXTT7=
EXTT8=
EXTT9=
EXTT10=
EXTT11=
EXTT12=
EXTT13=
EXTT14=
EXTT15=
EXTT16=
EXTT17=
EXTT18=
EXTT19=
EXTT20=
PLAYORDER=
